<svg xmlns="http://www.w3.org/2000/svg" viewBox="0 0 41.54 44.18">
    <defs>
        <style>
            .cls-1{fill:#eb3a42;}.cls-2{fill:#fff;}.cls-3{fill:none;stroke:#eb3a42;stroke-miterlimit:10;stroke-width:2px;}
        </style>
    </defs>
    <title>bookings</title>
    <g id="Layer_2" data-name="Layer 2">
        <g id="Layer_1-2" data-name="Layer 1">
            <path class="cls-1" fill="#eb3a42"
                  d="M40.54,44.18H1a1,1,0,0,1-1-1V10A5.84,5.84,0,0,1,5.83,4.18H40.54a1,1,0,0,1,1,1v38A1,1,0,0,1,40.54,44.18ZM2,42.18H39.54v-36H5.83A3.84,3.84,0,0,0,2,10Z"/>
            <circle class="cls-1" cx="21.21" cy="29.15" r="6.94"/>
            <rect class="cls-2" x="16.55" y="30.22" width="4.85" height="1.29" rx="0.64" ry="0.64"
                  transform="translate(27.38 -4.37) rotate(45)"/>
            <rect class="cls-2" x="18.6" y="29.09" width="8.06" height="1.29" rx="0.64" ry="0.64"
                  transform="translate(-14.4 24.71) rotate(-45)"/>
            <line class="cls-3" x1="41.54" y1="16.55" x2="1.02" y2="16.55"/>
            <rect class="cls-1" x="10.6" width="3" height="5.63" rx="1.5" ry="1.5"/>
            <rect class="cls-1" x="31.29" width="3" height="5.63" rx="1.5" ry="1.5"/>
        </g>
    </g>
</svg>