<svg xmlns="http://www.w3.org/2000/svg" viewBox="0 0 53.69 40.81"><defs><style>.cls-1{fill:#eb3a42;}</style></defs><title>giftcard-2</title><g id="Layer_2" data-name="Layer 2"><g id="Layer_1-2" data-name="Layer 1"><path class="cls-1" d="M52.72,40.81H1a1,1,0,0,1-1-1V5.67A5.67,5.67,0,0,1,5.67,0H52.72a1,1,0,0,1,1,1V39.84A1,1,0,0,1,52.72,40.81Zm-50.78-2H51.75V1.94H5.67A3.73,3.73,0,0,0,1.94,5.67Z"/><path class="cls-1" d="M52.72,16.84H1a1,1,0,0,1,0-1.95H52.72a1,1,0,0,1,0,1.95Z"/><path class="cls-1" d="M36.68,40.81a1,1,0,0,1-1-1V1a1,1,0,1,1,1.94,0V39.84A1,1,0,0,1,36.68,40.81Z"/><path class="cls-1" d="M36.31,15.85a1.09,1.09,0,0,1-.39-.08l-10-4.32a1,1,0,0,1-.57-.68,1,1,0,0,1,.24-.86l5.7-6.2a.94.94,0,0,1,.88-.3,1,1,0,0,1,.73.59L37.2,14.51A1,1,0,0,1,37,15.57,1,1,0,0,1,36.31,15.85Zm-8.39-5.64L34.5,13,31.66,6.15Z"/><path class="cls-1" d="M36.31,15.85a1,1,0,0,1-.69-.28,1,1,0,0,1-.21-1.06L39.73,4a1,1,0,0,1,.73-.59.94.94,0,0,1,.88.3L47,9.91a1,1,0,0,1-.33,1.54l-10,4.32A1,1,0,0,1,36.31,15.85ZM41,6.15,38.11,13l6.58-2.83Z"/><path class="cls-1" d="M30.21,21.37a1,1,0,0,1-.72-.31,1,1,0,0,1,.06-1.38l6.1-5.52a1,1,0,0,1,1.38.07A1,1,0,0,1,37,15.6l-6.1,5.52A1,1,0,0,1,30.21,21.37Z"/><path class="cls-1" d="M42.78,21.37a1,1,0,0,1-.65-.25L36,15.6a1,1,0,0,1,1.3-1.44l6.1,5.52a1,1,0,0,1,.07,1.38A1,1,0,0,1,42.78,21.37Z"/><path class="cls-1" d="M17.09,35.35a9,9,0,0,1-8.32-5.58,1,1,0,0,1,1.8-.74,7,7,0,0,0,6.52,4.38,7.09,7.09,0,0,0,6.58-4.54,1,1,0,0,1,1.82.69A9,9,0,0,1,17.09,35.35Z"/></g></g></svg>