<svg xmlns="http://www.w3.org/2000/svg" viewBox="0 0 39 49.1"><defs><style>.cls-1{fill:#eb3a42;}</style></defs><title>logout</title><g id="Layer_2" data-name="Layer 2"><g id="Layer_1-2" data-name="Layer 1"><path class="cls-1" d="M35,19.07a2,2,0,0,1,2,2v24a2,2,0,0,1-2,2H4a2,2,0,0,1-2-2v-24a2,2,0,0,1,2-2H35m0-2H4a4,4,0,0,0-4,4v24a4,4,0,0,0,4,4H35a4,4,0,0,0,4-4v-24a4,4,0,0,0-4-4Z"/><path class="cls-1" d="M10.15,18.07a1,1,0,0,1-1-1V10.4a10.4,10.4,0,1,1,20.8,0,1,1,0,1,1-2,0,8.4,8.4,0,1,0-16.8,0v6.67A1,1,0,0,1,10.15,18.07Z"/></g></g></svg>