<svg xmlns="http://www.w3.org/2000/svg" viewBox="0 0 41.67 30"><defs><style>.cls-1{fill:#eb3a42;}.cls-2{fill:#f48990;opacity:0.5;}</style></defs><title>new in town</title><g id="Layer_2" data-name="Layer 2"><g id="Layer_1-2" data-name="Layer 1"><path class="cls-1" d="M31,30a1,1,0,0,1-.3-.05l-21-6.68a1,1,0,0,1,.6-1.91L30,27.63V2.57L10.11,11.89a1,1,0,0,1-.85-1.81L30.58.09a1,1,0,0,1,1,.07A1,1,0,0,1,32,1V29a1,1,0,0,1-.41.81A1,1,0,0,1,31,30Z"/><path class="cls-1" d="M5.5,22.37H3.25A3.25,3.25,0,0,1,0,19.13V14.37a3.26,3.26,0,0,1,3.25-3.25H5.5a1,1,0,0,1,1,1v9.25A1,1,0,0,1,5.5,22.37ZM3.25,13.12A1.26,1.26,0,0,0,2,14.37v4.76a1.25,1.25,0,0,0,1.25,1.24H4.5V13.12Z"/><path class="cls-1" d="M33.89,9.85A1,1,0,0,1,33,9.36,1,1,0,0,1,33.38,8l5.1-3a1,1,0,0,1,1,1.72l-5.1,3A1,1,0,0,1,33.89,9.85Z"/><path class="cls-1" d="M39,24.57a1,1,0,0,1-.51-.14l-5.1-3a1,1,0,1,1,1-1.72l5.1,3a1,1,0,0,1,.35,1.37A1,1,0,0,1,39,24.57Z"/><path class="cls-1" d="M40.67,16H34.79a1,1,0,0,1,0-2h5.88a1,1,0,0,1,0,2Z"/><polygon class="cls-2" points="30.16 19.87 9.69 18.5 11.78 22.89 31 29 31 19.66 30.16 19.87"/></g></g></svg>