<svg xmlns="http://www.w3.org/2000/svg" viewBox="0 0 41.54 42.01"><defs><style>.cls-1{fill:#eb3a42;}.cls-2{fill:#fff;}</style></defs><title>orders</title><g id="Layer_2" data-name="Layer 2"><g id="Layer_1-2" data-name="Layer 1"><path class="cls-1" d="M40.54,42H1a1,1,0,0,1-1-1V5.83A5.84,5.84,0,0,1,5.83,0H40.54a1,1,0,0,1,1,1V41A1,1,0,0,1,40.54,42ZM2,40H39.54V2H5.83A3.84,3.84,0,0,0,2,5.83Z"/><path class="cls-1" d="M15.77,26.55H7.71a1,1,0,1,1,0-2h8.06a1,1,0,0,1,0,2Z"/><path class="cls-1" d="M28.25,26.55H20.19a1,1,0,0,1,0-2h8.06a1,1,0,0,1,0,2Z"/><path class="cls-1" d="M34.14,26.55H32.68a1,1,0,0,1,0-2h1.46a1,1,0,0,1,0,2Z"/><path class="cls-1" d="M34.14,33.59H7.71a1,1,0,0,1,0-2H34.14a1,1,0,0,1,0,2Z"/><circle class="cls-1" cx="21.19" cy="12.39" r="6.94"/><rect class="cls-2" x="16.52" y="13.46" width="4.85" height="1.29" rx="0.64" ry="0.64" transform="translate(15.52 -9.26) rotate(45)"/><rect class="cls-2" x="18.57" y="12.33" width="8.06" height="1.29" rx="0.64" ry="0.64" transform="translate(-2.55 19.78) rotate(-45)"/></g></g></svg>