<svg xmlns="http://www.w3.org/2000/svg" viewBox="0 0 59.17 43.39"><defs><style>.cls-1{fill:#eb3a42;}</style></defs><title>shopping cart</title><g id="Layer_2" data-name="Layer 2"><g id="Layer_1-2" data-name="Layer 1"><path class="cls-1" d="M41,31.52H5a1,1,0,0,1-1-.83L0,7.82A1,1,0,0,1,1,6.64H36.08a1,1,0,0,1,0,2H2.19L5.84,29.52H40.26L49.16.71a1,1,0,0,1,1-.71h8.06a1,1,0,0,1,0,2H50.85L42,30.82A1,1,0,0,1,41,31.52Z"/><circle class="cls-1" cx="32.17" cy="39.48" r="3.92"/><circle class="cls-1" cx="13.83" cy="39.48" r="3.92"/></g></g></svg>