<svg xmlns="http://www.w3.org/2000/svg" viewBox="0 0 33.87 36.2"><defs><style>.cls-1{fill:#f6cdd1;}.cls-2{fill:#eb3a42;}.cls-3{fill:#eb3842;}</style></defs><title>smiley</title><g id="Layer_2" data-name="Layer 2"><g id="Layer_1-2" data-name="Layer 1"><polygon class="cls-1" points="29.84 23.43 16.94 30.69 4.03 23.43 0 25.45 16.94 34.72 33.87 25.45 29.84 23.43"/><path class="cls-2" d="M16.9,27.41a9.22,9.22,0,0,1-8.56-5.75,1,1,0,0,1,.54-1.3,1,1,0,0,1,1.31.54,7.22,7.22,0,0,0,6.71,4.51,7.31,7.31,0,0,0,6.78-4.67A1,1,0,0,1,25,20.16a1,1,0,0,1,.58,1.29A9.31,9.31,0,0,1,16.9,27.41Z"/><path class="cls-2" d="M16.94,36.2a4.26,4.26,0,0,1-2.08-.55l-12.08-7A4.17,4.17,0,0,1,.7,25.07V11.13a4.17,4.17,0,0,1,2.08-3.6l12.08-7A4.16,4.16,0,0,1,19,.56l12.08,7a4.17,4.17,0,0,1,2.08,3.6V25.07a4.17,4.17,0,0,1-2.08,3.6L19,35.65A4.22,4.22,0,0,1,16.94,36.2Zm0-34.2a2.16,2.16,0,0,0-1.08.29l-12.08,7A2.17,2.17,0,0,0,2.7,11.13V25.07a2.17,2.17,0,0,0,1.08,1.87l12.08,7a2.12,2.12,0,0,0,2.15,0l12.08-7a2.15,2.15,0,0,0,1.08-1.87V11.13a2.15,2.15,0,0,0-1.08-1.87L18,2.29A2.15,2.15,0,0,0,16.94,2Z"/><path class="cls-3" d="M8.59,14.29l2.49-1.86,2.49,1.86a.72.72,0,0,0,1-.14.73.73,0,0,0-.14-1l-2.93-2.19a.72.72,0,0,0-.88,0L7.71,13.12a.73.73,0,0,0-.14,1,.72.72,0,0,0,1,.14Z"/><path class="cls-3" d="M20.3,14.29l2.49-1.86,2.49,1.86a.73.73,0,0,0,1-.14.74.74,0,0,0-.15-1l-2.93-2.19a.72.72,0,0,0-.88,0l-2.92,2.19a.74.74,0,0,0-.15,1,.72.72,0,0,0,1,.14Z"/></g></g></svg>